<?xml version="1.0" encoding="UTF-8"?>
<svg xmlns="http://www.w3.org/2000/svg" version="1.1" viewBox="0 0 1200 1200">
  <!-- Generator: Adobe Illustrator 30.2.1, SVG Export Plug-In . SVG Version: 2.1.1 Build 1)  -->
  <defs>
    <style>
      .st0 {
        fill: #709bbd;
      }

      .st1 {
        fill: #f4eed3;
      }
    </style>
  </defs>
  <g id="Layer_2">
    <rect class="st1" x="-98.43" y="-69.48" width="1356.19" height="1376"/>
  </g>
  <g id="Layer_1">
    <g>
      <path class="st0" d="M148.54,709.36c6.29,1.9,13.42,2.97,19.93,1.7,4.51-.88,8.89-2.98,12.91-5.46-.19-5.14-.29-10.3-.29-15.49,0-230.99,187.93-418.92,418.92-418.92s399.75,169.35,417.49,384.12c6.29-.92,12.75-1.39,19.29-1.39,10.4,0,20.5,1.17,30.17,3.51-3.54-51.64-15.49-101.8-35.68-149.51-23.57-55.74-57.32-105.8-100.3-148.77-42.97-42.98-93.03-76.73-148.77-100.3-57.72-24.42-119.01-36.79-182.19-36.79s-124.48,12.38-182.19,36.79c-55.74,23.57-105.8,57.32-148.77,100.3-42.98,42.97-76.73,93.03-100.3,148.77-24.42,57.72-36.79,119.01-36.79,182.19,0,2.8.03,5.59.08,8.38.4.29.77.66,1.1,1.13,1.33,1.97,4.26,3.36,6.13,4.85,2.8,2.24,5.86,3.84,9.29,4.88Z"/>
      <path class="st0" d="M1036.78,726.86c-6.4,0-12.33.57-17.86,1.61-30.97,5.8-49.09,26.12-62.88,41.58-15.69,17.59-24.77,26.77-44.07,26.77s-28.37-9.18-44.06-26.77c-16.26-18.23-38.53-43.19-80.74-43.19-28.23,0-47.53,11.17-62.09,24.02l-42.98-148.85c-12.73-44.1-29.45-88.76-32.85-135.27-3.44-47.14,7.16-97.62,34.55-136.62,0-.01,0-.03-.02-.03-80.19,3.54-145.29,64.41-173.38,136.24-3.07,7.86-5.73,15.89-7.95,24.03-7.25,26.68-13.23,53.79-20.89,80.4-8.06,28-16.53,55.88-24.61,83.87-11.27,39.02-22.54,78.04-33.8,117.07l-9.05,25.08c-.43,0-.87.02-1.31.02-19.29,0-28.37-9.18-44.06-26.77-16.26-18.23-38.53-43.19-80.74-43.19s-64.47,24.96-80.73,43.19c-8.27,9.27-14.7,16.21-21.76,20.69-6.34,4.03-13.18,6.08-22.3,6.08-11.83,0-19.83-3.46-27.87-10.2,2.36,19.55,5.94,38.85,10.74,57.87,5.31.95,11.01,1.47,17.12,1.47,12.52,0,23.28-2.19,32.65-5.75,22.24-8.46,36.65-24.62,48.09-37.44,15.68-17.58,24.77-26.76,44.06-26.76s28.37,9.18,44.07,26.76c16.26,18.23,38.53,43.2,80.73,43.2s64.48-24.97,80.74-43.2c15.68-17.58,24.77-26.76,44.06-26.76s28.37,9.18,44.07,26.76c16.26,18.23,38.52,43.2,80.73,43.2s64.47-24.97,80.74-43.2c15.68-17.58,24.77-26.76,44.06-26.76s28.37,9.18,44.07,26.76c16.26,18.23,38.52,43.2,80.73,43.2s64.48-24.97,80.74-43.2c8.77-9.83,15.47-17.03,23.05-21.47,5.98-3.51,12.51-5.29,21.01-5.29,11.87,0,19.87,3.47,27.93,10.24,2.14-17.86,3.26-35.92,3.35-54.14-9.05-3.26-19.37-5.24-31.27-5.24ZM574.62,477.74h5.04l53.65,148.7h-112.34l53.65-148.7ZM618.34,770.05c-16.27-18.23-38.53-43.19-80.74-43.19-19.82,0-35.23,5.5-47.7,13.23l16.76-53.75h140.97l27.17,108.89c-3.7,1.06-7.75,1.59-12.4,1.59-19.29,0-28.37-9.18-44.06-26.77Z"/>
      <path class="st0" d="M995.29,868.55c-17.35,8.94-29.4,22.45-39.24,33.49-15.69,17.58-24.77,26.76-44.07,26.76s-28.37-9.18-44.06-26.76c-16.26-18.23-38.53-43.2-80.74-43.2s-64.47,24.97-80.73,43.2c-15.69,17.58-24.78,26.76-44.07,26.76s-28.37-9.18-44.06-26.76c-16.27-18.23-38.53-43.2-80.74-43.2s-64.47,24.97-80.73,43.2c-15.69,17.58-24.77,26.76-44.07,26.76s-28.37-9.18-44.06-26.76c-16.26-18.23-38.53-43.2-80.74-43.2-36.2,0-57.73,18.37-73.39,35.1-2.59,2.77-5.02,5.51-7.34,8.1-11.94,13.38-20.05,21.89-31.75,25.19,7,15.04,14.76,29.64,23.26,43.77,17.21-7.29,29.57-19.18,39.54-30.04,1.96-2.12,3.82-4.21,5.61-6.22,15.68-17.59,24.77-26.77,44.06-26.77s28.37,9.18,44.07,26.77c16.26,18.23,38.53,43.19,80.73,43.19s64.48-24.96,80.74-43.19c15.68-17.59,24.77-26.77,44.06-26.77s28.37,9.18,44.07,26.77c16.26,18.23,38.52,43.19,80.73,43.19s64.47-24.96,80.74-43.19c15.68-17.59,24.77-26.77,44.06-26.77s28.37,9.18,44.07,26.77c16.26,18.23,38.52,43.19,80.73,43.19,10.68,0,20.07-1.6,28.42-4.27,24.67-7.92,40.18-25.3,52.32-38.92,14.59-16.36,23.46-25.43,40.14-26.63,6.55-15.89,12.21-32.05,16.94-48.44-4.11-.55-8.45-.84-13.02-.84-16.65,0-30.2,3.89-41.49,9.71Z"/>
    </g>
  </g>
</svg>